# Blender 3.6.1
# www.blender.org
mtllib DwarfHammerPaladin.mtl
o Cylinder
v -0.000000 -2.747169 -0.128834
v -0.000000 3.378028 -0.128834
v 0.091100 -2.747169 -0.091100
v 0.091100 3.378028 -0.091100
v 0.128834 -2.747169 -0.000000
v 0.128834 3.378028 -0.000000
v 0.091100 -2.747169 0.091100
v 0.091100 3.378028 0.091100
v -0.000000 -2.747169 0.128834
v -0.000000 3.378028 0.128834
v -0.091100 -2.747169 0.091100
v -0.091100 3.378028 0.091100
v -0.128834 -2.747169 -0.000000
v -0.128834 3.378028 -0.000000
v -0.091100 -2.747169 -0.091100
v -0.091100 3.378028 -0.091100
v -0.000000 -2.766838 -0.207041
v 0.146400 -2.766838 -0.146400
v 0.207041 -2.766838 -0.000000
v 0.146400 -2.766838 0.146400
v -0.000000 -2.766838 0.207041
v -0.146400 -2.766838 0.146400
v -0.207041 -2.766838 -0.000000
v -0.146400 -2.766838 -0.146400
v -0.000000 -2.833775 -0.207041
v 0.146400 -2.833775 -0.146400
v 0.207041 -2.833775 -0.000000
v 0.146400 -2.833775 0.146400
v -0.000000 -2.833775 0.207041
v -0.146400 -2.833775 0.146400
v -0.207041 -2.833775 -0.000000
v -0.146400 -2.833775 -0.146400
v -0.000000 -2.855304 -0.116342
v 0.082266 -2.855304 -0.082266
v 0.116342 -2.855304 -0.000000
v 0.082266 -2.855304 0.082266
v -0.000000 -2.855304 0.116342
v -0.082266 -2.855304 0.082266
v -0.116342 -2.855304 -0.000000
v -0.082266 -2.855304 -0.082266
v -0.000000 -3.058514 0.000000
v -0.000000 0.315429 -0.128834
v 0.091100 0.315429 -0.091100
v 0.128834 0.315429 -0.000000
v 0.091100 0.315429 0.091100
v -0.000000 0.315429 0.128834
v -0.091100 0.315429 0.091100
v -0.128834 0.315429 -0.000000
v -0.091100 0.315429 -0.091100
v 0.091100 -0.814630 -0.091100
v 0.128834 -0.814630 -0.000000
v 0.091100 -0.814630 0.091100
v -0.000000 -0.814630 0.128834
v -0.091100 -0.814630 0.091100
v -0.128834 -0.814630 -0.000000
v -0.091100 -0.814630 -0.091100
v -0.000000 -0.814630 -0.128834
v -0.000000 0.263347 -0.098810
v 0.069869 0.263346 -0.069869
v 0.098810 0.263346 -0.000000
v 0.069869 0.263346 0.069869
v -0.000000 0.263346 0.098810
v -0.069869 0.263346 0.069869
v -0.098810 0.263346 -0.000000
v -0.069869 0.263346 -0.069869
v 0.069869 -0.764316 -0.069869
v 0.098810 -0.764316 -0.000000
v 0.069869 -0.764316 0.069869
v -0.000000 -0.764316 0.098810
v -0.069869 -0.764316 0.069869
v -0.098810 -0.764316 -0.000000
v -0.069869 -0.764316 -0.069869
v -0.000000 -0.764316 -0.098810
v -0.443132 3.040171 0.564276
v -0.443132 3.195817 0.669012
v -0.572021 3.270848 0.489244
v -0.443132 4.082081 0.669012
v -0.313522 4.237726 0.434666
v -0.572021 4.007049 0.489244
v -0.443132 3.040171 -0.564276
v -0.572021 3.270848 -0.489244
v -0.443132 3.195817 -0.669013
v -0.313522 4.237726 -0.434666
v -0.443132 4.082081 -0.669013
v -0.572021 4.007049 -0.489244
v 0.443132 3.040171 0.564276
v 0.572021 3.270848 0.489244
v 0.443132 3.195817 0.669012
v 0.313522 4.237726 0.434666
v 0.443132 4.082081 0.669012
v 0.572021 4.007049 0.489244
v 0.443132 3.040171 -0.564276
v 0.443132 3.195817 -0.669013
v 0.572021 3.270848 -0.489244
v 0.313522 4.237726 -0.434666
v 0.572021 4.007049 -0.489244
v 0.443132 4.082081 -0.669013
v -0.598777 3.195817 0.564276
v -0.598777 3.195817 -0.564276
v -0.598777 4.082081 0.564276
v -0.598777 4.082081 -0.564276
v 0.598777 4.082081 -0.564276
v 0.598777 3.195817 -0.564276
v 0.598777 3.195817 0.564276
v 0.598777 4.082081 0.564276
v -0.443132 4.082081 -0.745925
v -0.443132 3.195817 -0.745925
v 0.443132 3.195817 -0.745925
v 0.443132 4.082081 -0.745925
v -0.375807 4.014757 -1.146873
v -0.375807 3.263141 -1.146873
v 0.375807 3.263141 -1.146873
v 0.375807 4.014757 -1.146873
v 0.443132 4.082081 0.754258
v 0.443132 3.195817 0.754258
v -0.443132 3.195817 0.754258
v -0.443132 4.082081 0.754258
v 0.375807 4.014757 1.155205
v 0.375807 3.263141 1.155205
v -0.375807 3.263141 1.155205
v -0.375807 4.014757 1.155205
v -0.572021 3.270848 0.000000
v -0.572021 3.638949 0.489244
v -0.572021 3.969857 0.000000
v -0.572021 3.638949 -0.489244
v 0.572021 3.638949 -0.489244
v 0.572021 3.270848 0.000000
v 0.572021 3.969857 0.000000
v 0.572021 3.638949 0.489244
v -0.593073 3.509732 -0.244622
v -0.572021 3.270848 -0.244622
v -0.572021 3.454899 0.489244
v -0.572021 4.007049 0.244622
v -0.572021 3.822999 -0.489244
v 0.572021 3.454899 -0.489244
v 0.572021 3.270848 0.244622
v 0.572021 4.007049 -0.244622
v 0.572021 3.822999 0.489244
v -0.572021 3.270848 0.244622
v -0.572021 3.822999 0.489244
v -0.572021 4.007049 -0.244622
v -0.572021 3.454899 -0.489244
v 0.572021 3.822999 -0.489244
v 0.572021 3.270848 -0.244622
v 0.572021 4.007049 0.244622
v 0.572021 3.454899 0.489244
v 0.572021 3.785807 -0.244622
v -0.572021 3.785807 0.244622
v -0.572021 3.785807 -0.244622
v 0.572021 3.785807 0.244622
v -0.572021 3.270848 -0.366933
v -0.572021 3.362873 0.489244
v -0.572021 4.007049 0.366933
v -0.572021 3.915025 -0.489244
v 0.572021 3.362873 -0.489244
v 0.572021 3.270848 0.366933
v 0.572021 4.007049 -0.366933
v 0.572021 3.915025 0.489244
v -0.572021 3.270848 0.122311
v -0.572021 3.730974 0.489244
v -0.572021 4.007049 -0.122311
v -0.572021 3.546924 -0.489244
v 0.572021 3.730974 -0.489244
v 0.572021 3.270848 -0.122311
v 0.572021 4.007049 0.122311
v 0.572021 3.546924 0.489244
v -0.572021 3.601757 0.122311
v 0.572021 3.601757 -0.122311
v -0.572021 3.270848 -0.122311
v -0.572021 3.546924 0.489244
v -0.572021 4.007049 0.122311
v -0.572021 3.730974 -0.489244
v 0.572021 3.546924 -0.489244
v 0.572021 3.270848 0.122311
v 0.572021 4.007049 -0.122311
v 0.572021 3.730974 0.489244
v -0.572021 3.270848 0.366933
v -0.572021 3.915025 0.489244
v -0.572021 4.007049 -0.366933
v -0.572021 3.362873 -0.489244
v 0.572021 3.915025 -0.489244
v 0.572021 3.270848 -0.366933
v 0.572021 4.007049 0.366933
v 0.572021 3.362873 0.489244
v -0.572021 3.601757 -0.122311
v 0.572021 3.601757 0.122311
v -0.593073 3.693782 -0.122311
v 0.572021 3.785807 -0.174358
v 0.572021 3.509732 -0.244622
v 0.572021 3.509732 0.244622
v -0.572021 3.785807 0.174358
v -0.572021 3.509732 0.244622
v -0.572021 3.509732 -0.244622
v -0.572021 3.785807 -0.174358
v 0.572021 3.785807 0.174358
v 0.572021 3.877832 0.122311
v 0.572021 3.693782 0.122311
v -0.572021 3.877832 -0.122311
v -0.572021 3.693782 -0.122311
v -0.572021 3.693782 0.122311
v -0.593073 3.785807 -0.174358
v 0.572021 3.693782 -0.122311
v 0.572021 3.877832 -0.122311
v -0.572021 3.877832 0.122311
v -0.572021 3.270848 -0.428089
v -0.572021 3.316861 0.489244
v -0.572021 4.007049 0.428089
v -0.572021 3.961037 -0.489244
v 0.572021 3.316861 -0.489244
v 0.572021 3.270848 0.428089
v 0.572021 4.007049 -0.428089
v 0.572021 3.961037 0.489244
v -0.572021 3.270848 0.061156
v -0.572021 3.684961 0.489244
v -0.572021 3.969857 -0.061156
v -0.572021 3.592937 -0.489244
v 0.572021 3.684961 -0.489244
v 0.572021 3.270848 -0.061156
v 0.572021 3.969857 0.061156
v 0.572021 3.592937 0.489244
v -0.593073 3.877832 -0.122311
v -0.572021 3.270848 -0.183467
v -0.572021 3.500911 0.489244
v -0.572021 4.007049 0.183467
v -0.572021 3.776987 -0.489244
v 0.572021 3.500911 -0.489244
v 0.572021 3.270848 0.183467
v 0.572021 4.007049 -0.183467
v 0.572021 3.776987 0.489244
v -0.572021 3.270848 0.305778
v -0.572021 3.869012 0.489244
v -0.572021 4.007049 -0.305778
v -0.572021 3.408886 -0.489244
v 0.572021 3.869012 -0.489244
v 0.572021 3.270848 -0.305778
v 0.572021 4.007049 0.305778
v 0.572021 3.408886 0.489244
v -0.572021 3.869012 0.000000
v -0.593073 3.785807 0.174358
v 0.572021 3.831819 0.000000
v 0.572021 3.417706 -0.032070
v -0.572021 3.785807 0.033070
v -0.572021 3.417706 0.032070
v -0.572021 3.270848 -0.305778
v -0.572021 3.408886 0.489244
v -0.572021 4.007049 0.305778
v -0.572021 3.869012 -0.489244
v 0.572021 3.408886 -0.489244
v 0.572021 3.270848 0.305778
v 0.572021 4.007049 -0.305778
v 0.572021 3.869012 0.489244
v -0.572021 3.270848 0.183467
v -0.572021 3.776987 0.489244
v -0.572021 4.007049 -0.183467
v -0.572021 3.500911 -0.489244
v 0.572021 3.776987 -0.489244
v 0.572021 3.270848 -0.183467
v 0.572021 4.007049 0.183467
v 0.572021 3.500911 0.489244
v -0.572021 3.371694 0.000000
v -0.572021 3.776987 0.000000
v 0.572021 3.371694 0.000000
v 0.572021 3.776987 0.000000
v -0.572021 3.270848 -0.061156
v -0.572021 3.592937 0.489244
v -0.572021 3.969857 0.061156
v -0.572021 3.684961 -0.489244
v 0.572021 3.592937 -0.489244
v 0.572021 3.270848 0.061156
v 0.572021 3.969857 -0.061156
v 0.572021 3.684961 0.489244
v -0.572021 3.270848 0.428089
v -0.572021 3.961037 0.489244
v -0.572021 4.007049 -0.428089
v -0.572021 3.316861 -0.489244
v 0.572021 3.961037 -0.489244
v 0.572021 3.270848 -0.428089
v 0.572021 4.007049 0.428089
v 0.572021 3.316861 0.489244
v -0.593073 3.877832 0.000000
v -0.593073 3.923845 0.000000
v 0.572021 3.417706 0.032070
v -0.572021 3.417706 -0.032070
v -0.572021 3.785807 -0.033070
v -0.593073 3.601757 -0.122311
v -0.593073 3.693782 0.000000
v -0.593073 3.739794 0.000000
v -0.572021 3.509732 -0.032070
v -0.593073 3.785807 -0.244622
v 0.572021 3.509732 0.032070
v -0.593073 3.417706 0.032070
v -0.593073 3.647769 0.000000
v 0.572021 3.509732 -0.032070
v -0.572021 3.509732 0.032070
v -0.572021 3.555744 0.183467
v -0.572021 3.463719 0.032070
v -0.572021 3.831819 0.183467
v -0.572021 3.888571 0.033070
v 0.572021 3.555744 -0.183467
v -0.593073 3.969857 0.000000
v 0.572021 3.463719 -0.032070
v 0.572021 3.831819 -0.183467
v 0.572021 3.888571 -0.033070
v 0.572021 3.739794 -0.183467
v 0.572021 3.647769 -0.061156
v 0.572021 3.371694 0.032070
v -0.593073 3.969857 -0.061156
v 0.572021 3.463719 0.032070
v -0.572021 3.463719 0.214044
v -0.572021 3.739794 0.183467
v -0.572021 3.647769 0.061156
v -0.572021 3.371694 -0.032070
v -0.572021 3.463719 -0.032070
v -0.572021 3.683044 -0.033070
v -0.572021 3.647769 -0.061156
v -0.572021 3.923845 -0.061156
v -0.572021 3.888571 -0.033070
v -0.572021 3.831819 -0.183467
v 0.572021 3.683044 0.033070
v 0.572021 3.647769 0.061156
v 0.572021 3.923845 0.061156
v 0.572021 3.888569 0.033070
v 0.572021 3.831819 0.183467
v 0.572021 3.739794 0.183467
v -0.572021 3.739794 -0.183467
v -0.572021 3.555744 -0.183467
v -0.572021 3.371694 0.032070
v -0.572021 3.683044 0.033070
v 0.572021 3.555744 0.183467
v 0.572021 3.371694 -0.032070
v 0.572021 3.683044 -0.033070
v 0.572021 3.923845 -0.061156
v -0.572021 3.463719 -0.214044
v -0.572021 3.923845 0.061156
v 0.572021 3.463719 0.214045
v 0.572021 3.463719 -0.214045
v 0.596308 3.969857 0.061156
v 0.596308 3.969857 0.000000
v 0.596308 3.417706 -0.032070
v 0.596308 3.785807 0.244622
v 0.596308 3.739794 0.000000
v 0.596308 3.601757 0.122311
v 0.596308 3.785807 -0.174358
v 0.596308 3.877832 0.122311
v 0.596308 3.785807 0.174358
v 0.596308 3.693782 0.122311
v 0.596308 3.509732 0.244622
v 0.596308 3.509732 0.032070
v 0.596308 3.693782 -0.122311
v 0.596308 3.509732 -0.032070
v 0.596308 3.601757 -0.122311
v 0.596308 3.831819 0.000000
v 0.596308 3.371694 0.000000
v 0.596308 3.969857 -0.061156
v 0.596308 3.785807 -0.244622
v 0.596308 3.417706 0.032070
v 0.596308 3.877832 -0.122311
v 0.596308 3.509732 -0.244622
v 0.596308 3.555744 -0.183467
v 0.596308 3.463719 -0.214045
v 0.596308 3.463719 -0.032070
v 0.596308 3.831819 -0.183467
v 0.596308 3.888569 -0.033070
v 0.596308 3.739794 -0.183467
v 0.596308 3.647769 -0.061156
v 0.596308 3.371694 0.032070
v 0.596308 3.463719 0.032070
v 0.596308 3.683044 0.033070
v 0.596308 3.647769 0.061156
v 0.596308 3.923845 0.061156
v 0.596308 3.888571 0.033070
v 0.596308 3.831819 0.183467
v 0.596308 3.739794 0.183467
v 0.596308 3.555744 0.183467
v 0.596308 3.371694 -0.032070
v 0.596308 3.683044 -0.033070
v 0.596308 3.923845 -0.061156
v 0.596308 3.463719 0.214045
v -0.593073 3.509732 -0.032070
v -0.593073 3.693782 0.122311
v -0.593073 3.683044 0.033070
v -0.593073 3.888571 0.033070
v -0.593073 3.888571 -0.033070
v -0.593073 3.509732 0.032070
v -0.593073 3.601757 0.122311
v -0.593073 3.683044 -0.033070
v -0.593073 3.739794 0.183467
v -0.593073 3.831819 0.000000
v -0.593073 3.831819 0.183467
v -0.593073 3.785807 0.244622
v -0.593073 3.509732 0.244622
v -0.593073 3.463719 0.214044
v -0.593073 3.371694 0.000000
v -0.593073 3.555744 0.183467
v -0.593073 3.969857 0.061156
v -0.593073 3.647769 0.061156
v -0.593073 3.923845 0.061156
v -0.593073 3.877832 0.122311
v -0.593073 3.417706 -0.032070
v -0.572021 3.600890 0.032070
v -0.593073 3.739794 -0.183467
v -0.593073 3.831819 -0.183467
v -0.593073 3.923845 -0.061156
v -0.593073 3.647769 -0.061156
v -0.593073 3.555744 -0.183467
v -0.572021 3.600890 -0.032070
v -0.593073 3.463719 -0.214044
v -0.593073 3.463719 0.032070
v -0.593073 3.371694 -0.032070
v -0.593073 3.463719 -0.032070
v -0.593073 3.371694 0.032070
v 0.596308 3.647769 0.000000
v 0.572021 3.684961 0.000000
v 0.171667 3.030918 -0.000000
v 0.161611 3.055196 -0.000000
v 0.137334 3.065251 -0.000000
v 0.113057 3.055196 -0.000000
v 0.103000 3.030918 -0.000000
v 0.113057 3.006641 -0.000000
v 0.137334 2.996584 -0.000000
v 0.161611 3.006641 -0.000000
v 0.121387 3.030918 -0.121387
v 0.114277 3.055196 -0.114277
v 0.097110 3.065251 -0.097110
v 0.079943 3.055196 -0.079943
v 0.072832 3.030918 -0.072832
v 0.079943 3.006641 -0.079943
v 0.097110 2.996584 -0.097110
v 0.114277 3.006641 -0.114277
v -0.000000 3.030918 -0.171668
v -0.000000 3.055196 -0.161612
v -0.000000 3.065251 -0.137334
v -0.000000 3.055196 -0.113057
v -0.000000 3.030918 -0.103001
v -0.000000 3.006641 -0.113057
v -0.000000 2.996584 -0.137334
v -0.000000 3.006641 -0.161612
v -0.121387 3.030918 -0.121387
v -0.114277 3.055196 -0.114277
v -0.097110 3.065251 -0.097110
v -0.079943 3.055196 -0.079943
v -0.072832 3.030918 -0.072832
v -0.079943 3.006641 -0.079943
v -0.097110 2.996584 -0.097110
v -0.114277 3.006641 -0.114277
v -0.171668 3.030918 -0.000000
v -0.161612 3.055196 -0.000000
v -0.137334 3.065251 -0.000000
v -0.113057 3.055196 -0.000000
v -0.103001 3.030918 -0.000000
v -0.113057 3.006641 -0.000000
v -0.137334 2.996584 -0.000000
v -0.161612 3.006641 -0.000000
v -0.121387 3.030918 0.121387
v -0.114277 3.055196 0.114277
v -0.097110 3.065251 0.097110
v -0.079943 3.055196 0.079943
v -0.072832 3.030918 0.072832
v -0.079943 3.006641 0.079943
v -0.097110 2.996584 0.097110
v -0.114277 3.006641 0.114277
v -0.000000 3.030918 0.171668
v -0.000000 3.055196 0.161611
v -0.000000 3.065251 0.137334
v -0.000000 3.055196 0.113057
v -0.000000 3.030918 0.103000
v -0.000000 3.006641 0.113057
v -0.000000 2.996584 0.137334
v -0.000000 3.006641 0.161611
v 0.121387 3.030918 0.121387
v 0.114276 3.055196 0.114277
v 0.097110 3.065251 0.097110
v 0.079943 3.055196 0.079943
v 0.072832 3.030918 0.072832
v 0.079943 3.006641 0.079943
v 0.097110 2.996584 0.097110
v 0.114276 3.006641 0.114277
v -0.441209 4.080158 -1.183387
v -0.441209 3.197740 -1.183387
v 0.441209 3.197740 -1.183387
v 0.441209 4.080158 -1.183387
v 0.441209 4.080158 1.191720
v 0.441209 3.197740 1.191720
v -0.441209 3.197740 1.191720
v -0.441209 4.080158 1.191720
v -0.443132 4.237726 0.564276
v -0.443132 4.237726 -0.564276
v 0.443132 4.237726 -0.564276
v 0.443132 4.237726 0.564276
v -0.361812 4.237726 0.482956
v -0.361812 4.237726 -0.482956
v 0.361812 4.237726 -0.482956
v 0.361812 4.237726 0.482956
v 0.596308 3.600890 0.032070
v 0.596308 3.600890 -0.032070
v 0.572021 3.600890 0.032070
v 0.572021 3.600890 -0.032070
v -0.593073 3.600890 -0.032070
v -0.593073 3.600890 0.032070
v -0.669078 4.275537 -0.827354
v -0.639330 4.278279 -0.785462
v -0.636588 4.308027 -0.827354
v -0.669078 3.002360 -0.827354
v -0.636588 2.969871 -0.827354
v -0.639330 2.999619 -0.785462
v 0.636588 2.969871 -0.827354
v 0.669078 3.002360 -0.827354
v 0.639330 2.999619 -0.785462
v 0.636588 4.308027 -0.827354
v 0.639330 4.278279 -0.785462
v 0.669078 4.275537 -0.827354
v -0.669078 4.275537 -1.070327
v -0.636588 4.308027 -1.070327
v -0.638880 4.277829 -1.111229
v -0.638880 3.000069 -1.111229
v -0.636588 2.969871 -1.070327
v -0.669078 3.002360 -1.070327
v 0.638880 3.000069 -1.111229
v 0.669078 3.002360 -1.070327
v 0.636588 2.969871 -1.070327
v 0.636588 4.308027 -1.070327
v 0.669078 4.275537 -1.070327
v 0.638880 4.277829 -1.111229
v 0.669078 4.275537 0.835687
v 0.639330 4.278279 0.793795
v 0.636588 4.308027 0.835687
v 0.669078 3.002360 0.835687
v 0.636588 2.969871 0.835687
v 0.639330 2.999619 0.793795
v -0.636588 2.969871 0.835687
v -0.669078 3.002360 0.835687
v -0.639330 2.999619 0.793795
v -0.636588 4.308027 0.835687
v -0.639330 4.278279 0.793795
v -0.669078 4.275537 0.835687
v 0.669078 4.275537 1.078660
v 0.636588 4.308027 1.078660
v 0.638880 4.277829 1.119562
v 0.638880 3.000069 1.119562
v 0.636588 2.969871 1.078660
v 0.669078 3.002360 1.078660
v -0.638880 3.000069 1.119562
v -0.669078 3.002360 1.078660
v -0.636588 2.969871 1.078660
v -0.636588 4.308027 1.078660
v -0.669078 4.275537 1.078660
v -0.638880 4.277829 1.119562
vn 0.3827 -0.0000 -0.9239
vn 0.9239 -0.0000 -0.3827
vn 0.9239 -0.0000 0.3827
vn 0.3827 -0.0000 0.9239
vn -0.3827 -0.0000 0.9239
vn -0.9239 -0.0000 0.3827
vn -0.0000 1.0000 -0.0000
vn -0.9239 -0.0000 -0.3827
vn -0.3827 -0.0000 -0.9239
vn -0.1005 0.9649 -0.2427
vn 0.1005 0.9649 -0.2427
vn 0.2427 0.9649 0.1005
vn -0.2427 0.9649 0.1005
vn 0.1005 0.9649 0.2427
vn -0.2427 0.9649 -0.1005
vn 0.2427 0.9649 -0.1005
vn -0.1005 0.9649 0.2427
vn 0.0952 -0.9685 -0.2299
vn -0.8167 -0.4676 -0.3383
vn -0.0952 -0.9685 -0.2299
vn -0.2299 -0.9685 0.0952
vn 0.0952 -0.9685 0.2299
vn 0.2299 -0.9685 -0.0952
vn -0.2299 -0.9685 -0.0952
vn -0.0952 -0.9685 0.2299
vn 0.2299 -0.9685 0.0952
vn -0.3383 -0.4676 0.8167
vn 0.8167 -0.4676 0.3383
vn 0.3383 -0.4676 -0.8167
vn -0.3383 -0.4676 -0.8167
vn -0.8167 -0.4676 0.3383
vn 0.3383 -0.4676 0.8167
vn 0.8167 -0.4676 -0.3383
vn -0.3378 -0.4701 -0.8154
vn -0.8154 -0.4701 -0.3378
vn -0.8154 -0.4701 0.3378
vn -0.3378 -0.4701 0.8154
vn 0.3378 -0.4701 0.8154
vn 0.8154 -0.4701 0.3378
vn 0.8154 -0.4701 -0.3378
vn 0.3378 -0.4701 -0.8154
vn -0.3351 0.4828 -0.8091
vn -0.8091 0.4828 -0.3351
vn -0.8091 0.4828 0.3351
vn -0.3351 0.4828 0.8091
vn 0.3351 0.4828 0.8091
vn 0.8091 0.4828 0.3351
vn 0.8091 0.4828 -0.3351
vn 0.3351 0.4828 -0.8091
vn -0.0000 -0.0000 1.0000
vn 1.0000 -0.0000 -0.0000
vn -0.4875 -0.4875 0.7244
vn -0.4875 0.4875 0.7244
vn -0.4875 -0.4875 -0.7244
vn -0.4875 0.4875 -0.7244
vn 0.4875 -0.4875 0.7244
vn 0.4875 0.4875 0.7244
vn 0.4875 -0.4875 -0.7244
vn 0.4875 0.4875 -0.7244
vn -0.7071 -0.7071 -0.0000
vn -0.5583 -0.0000 0.8296
vn -0.7071 0.7071 -0.0000
vn -0.5583 -0.0000 -0.8296
vn -0.0000 -0.5583 -0.8296
vn -0.0000 0.5583 -0.8296
vn 0.5583 -0.0000 -0.8296
vn 0.7071 -0.7071 -0.0000
vn 0.7071 0.7071 -0.0000
vn 0.5583 -0.0000 0.8296
vn -0.0000 -0.5583 0.8296
vn -0.0000 0.5583 0.8296
vn -0.0000 -1.0000 -0.0000
vn -0.9419 0.3359 -0.0000
vn -0.9419 -0.0000 -0.3359
vn -0.9419 -0.3359 -0.0000
vn -0.9419 -0.0000 0.3359
vn 0.9419 -0.0000 0.3359
vn 0.9419 0.3359 -0.0000
vn 0.9419 -0.3359 -0.0000
vn 0.9419 -0.0000 -0.3359
vn -1.0000 -0.0000 -0.0000
vn -0.3429 -0.0000 -0.9394
vn -0.0000 -0.1975 0.9803
vn -0.0000 0.1975 0.9803
vn -0.0000 -0.0000 -1.0000
vn 0.3429 -0.0000 -0.9394
vn -0.0000 -0.3429 -0.9394
vn -0.0000 0.3429 -0.9394
vn 0.3429 -0.0000 0.9394
vn -0.0000 -0.1975 -0.9803
vn -0.0000 0.1975 -0.9803
vn -0.3429 -0.0000 0.9394
vn -0.0000 -0.3429 0.9394
vn -0.0000 0.3429 0.9394
vn 0.1975 -0.0000 0.9803
vn 0.1975 -0.0000 -0.9803
vn -0.1975 -0.0000 -0.9803
vn -0.1975 -0.0000 0.9803
vn -0.0000 -0.7985 0.6019
vn -0.0000 0.7991 -0.6012
vn -0.3346 0.3787 -0.8629
vn -0.0000 -0.7991 0.6012
vn -0.0000 -0.8087 -0.5882
vn -0.0000 0.8087 -0.5882
vn -0.0000 -0.5535 -0.8329
vn 0.5008 -0.5669 0.6541
vn -0.0000 0.7991 0.6012
vn -0.0000 0.8087 0.5882
vn -0.0000 -0.7991 -0.6012
vn -0.0000 -0.5535 0.8329
vn -0.0000 -0.7985 -0.6019
vn -0.0000 -0.5035 0.8640
vn 0.2941 0.3841 0.8752
vn -0.3346 0.3787 0.8629
vn -0.0000 -0.5035 -0.8640
vn -0.0000 -0.8087 0.5882
vn 0.2941 0.3841 -0.8752
vn 0.5008 -0.5669 -0.6541
vn 0.8629 0.3574 -0.3574
vn 0.3779 0.9125 -0.1566
vn -0.3780 0.9125 0.1566
vn -0.8629 0.3574 0.3574
vn -0.8629 -0.3574 0.3574
vn -0.3780 -0.9125 0.1566
vn 0.3780 -0.9125 -0.1566
vn 0.8629 -0.3574 -0.3574
vn 0.3574 0.3574 -0.8629
vn 0.1566 0.9125 -0.3780
vn -0.1566 0.9125 0.3780
vn -0.3574 0.3574 0.8629
vn -0.3574 -0.3574 0.8629
vn -0.1566 -0.9125 0.3780
vn 0.1566 -0.9125 -0.3780
vn 0.3574 -0.3574 -0.8629
vn -0.3574 0.3574 -0.8629
vn -0.1566 0.9125 -0.3780
vn 0.1566 0.9125 0.3780
vn 0.3574 0.3574 0.8629
vn 0.3574 -0.3574 0.8629
vn 0.1566 -0.9125 0.3780
vn -0.1566 -0.9125 -0.3780
vn -0.3574 -0.3574 -0.8629
vn -0.8629 0.3574 -0.3574
vn -0.3780 0.9125 -0.1566
vn 0.3780 0.9125 0.1566
vn 0.8629 0.3574 0.3574
vn 0.8629 -0.3574 0.3574
vn 0.3780 -0.9125 0.1566
vn -0.3780 -0.9125 -0.1566
vn -0.8629 -0.3574 -0.3574
vn -0.3779 0.9125 0.1566
vn 0.3780 0.9125 -0.1566
vn 0.4875 -0.0000 -0.8731
vn -0.0000 0.4875 -0.8731
vn -0.0000 -0.4875 -0.8731
vn -0.4875 -0.0000 -0.8731
vn -0.4875 -0.0000 0.8731
vn -0.0000 0.4875 0.8731
vn -0.0000 -0.4875 0.8731
vn 0.4875 -0.0000 0.8731
vn -0.6434 0.6434 0.4148
vn -0.6434 -0.6434 0.4148
vn 0.6434 -0.6434 0.4148
vn 0.6434 0.6434 0.4148
vn -0.6369 0.6369 -0.4345
vn -0.6369 -0.6369 -0.4345
vn 0.6369 -0.6369 -0.4345
vn 0.6369 0.6369 -0.4345
vn 0.6434 0.6434 -0.4148
vn 0.6434 -0.6434 -0.4148
vn -0.6434 -0.6434 -0.4148
vn -0.6434 0.6434 -0.4148
vn 0.6369 0.6369 0.4345
vn 0.6369 -0.6369 0.4345
vn -0.6369 -0.6369 0.4345
vn -0.6369 0.6369 0.4345
vn -0.8153 -0.0000 0.5790
vn -0.0000 -0.8153 0.5790
vn -0.0000 0.8153 0.5790
vn 0.8153 -0.0000 0.5790
vn -0.8045 -0.0000 -0.5940
vn -0.0000 -0.8045 -0.5940
vn -0.0000 0.8045 -0.5940
vn 0.8045 -0.0000 -0.5940
vn 0.8153 -0.0000 -0.5790
vn -0.0000 -0.8153 -0.5790
vn -0.0000 0.8153 -0.5790
vn -0.8153 -0.0000 -0.5790
vn 0.8045 -0.0000 0.5940
vn -0.0000 -0.8045 0.5940
vn -0.0000 0.8045 0.5940
vn -0.8045 -0.0000 0.5940
vt 0.071896 0.561921
vt 0.071898 0.567842
vt 0.068942 0.567842
vt 0.068941 0.561921
vt 0.065987 0.567842
vt 0.065985 0.561921
vt 0.063031 0.567842
vt 0.063029 0.561921
vt 0.060076 0.567842
vt 0.060074 0.561921
vt 0.057121 0.567842
vt 0.057119 0.561921
vt 0.054166 0.567842
vt 0.054164 0.561921
vt 0.142175 0.850098
vt 0.138163 0.851763
vt 0.134151 0.850098
vt 0.132490 0.846079
vt 0.134152 0.842060
vt 0.138164 0.840395
vt 0.142175 0.842060
vt 0.143837 0.846079
vt 0.051211 0.567842
vt 0.051209 0.561921
vt 0.048256 0.567842
vt 0.048255 0.561921
vt 0.533192 0.729977
vt 0.530235 0.729978
vt 0.539107 0.729977
vt 0.536149 0.729977
vt 0.553894 0.729977
vt 0.550936 0.729977
vt 0.547978 0.729977
vt 0.545021 0.729977
vt 0.542064 0.729977
vt 0.846079 0.936070
vt 0.843119 0.936065
vt 0.852000 0.936080
vt 0.849040 0.936075
vt 0.857921 0.936092
vt 0.854961 0.936086
vt 0.863842 0.936104
vt 0.860881 0.936097
vt 0.840158 0.936060
vt 0.549141 0.735786
vt 0.549140 0.735862
vt 0.546183 0.735862
vt 0.546183 0.735786
vt 0.552098 0.735786
vt 0.552098 0.735862
vt 0.555056 0.735786
vt 0.555055 0.735862
vt 0.558013 0.735786
vt 0.558013 0.735862
vt 0.560971 0.735786
vt 0.560971 0.735862
vt 0.563929 0.735786
vt 0.563929 0.735862
vt 0.566887 0.735786
vt 0.566887 0.735862
vt 0.569845 0.735786
vt 0.569845 0.735862
vt 0.071895 0.556000
vt 0.071896 0.560391
vt 0.068940 0.560391
vt 0.068940 0.556000
vt 0.065985 0.560391
vt 0.065984 0.556000
vt 0.063029 0.560391
vt 0.063028 0.556000
vt 0.060074 0.560391
vt 0.060073 0.556000
vt 0.057119 0.560391
vt 0.057118 0.556000
vt 0.054164 0.560391
vt 0.054163 0.556000
vt 0.051209 0.560391
vt 0.051208 0.556000
vt 0.048254 0.560391
vt 0.048254 0.556000
vt 0.867842 0.944576
vt 0.867842 0.945956
vt 0.864881 0.945950
vt 0.864881 0.944570
vt 0.861921 0.945944
vt 0.861921 0.944564
vt 0.858960 0.945938
vt 0.858960 0.944558
vt 0.856000 0.945932
vt 0.856000 0.944552
vt 0.853040 0.945927
vt 0.853040 0.944546
vt 0.850079 0.945921
vt 0.850079 0.944541
vt 0.847119 0.945916
vt 0.847119 0.944535
vt 0.844158 0.945911
vt 0.844158 0.944530
vt 0.549149 0.734342
vt 0.549149 0.734414
vt 0.546191 0.734414
vt 0.546192 0.734342
vt 0.552107 0.734342
vt 0.552106 0.734414
vt 0.555064 0.734342
vt 0.555064 0.734414
vt 0.558022 0.734342
vt 0.558022 0.734414
vt 0.560980 0.734342
vt 0.560979 0.734414
vt 0.563938 0.734342
vt 0.563937 0.734414
vt 0.566896 0.734342
vt 0.566895 0.734414
vt 0.569854 0.734342
vt 0.569853 0.734414
vt 0.141887 0.858690
vt 0.146261 0.858690
vt 0.146263 0.863072
vt 0.141888 0.863072
vt 0.148437 0.853273
vt 0.151532 0.853273
vt 0.151532 0.856648
vt 0.148437 0.856648
vt 0.850191 0.947307
vt 0.845809 0.947300
vt 0.135977 0.857151
vt 0.135977 0.857921
vt 0.135209 0.857151
vt 0.146261 0.840158
vt 0.147029 0.840928
vt 0.146261 0.840928
vt 0.135976 0.852770
vt 0.135208 0.852770
vt 0.135976 0.852000
vt 0.147028 0.845310
vt 0.146260 0.846079
vt 0.146260 0.845310
vt 0.140351 0.857151
vt 0.141119 0.857151
vt 0.140351 0.857921
vt 0.147030 0.858690
vt 0.146261 0.857921
vt 0.140350 0.852770
vt 0.140350 0.852000
vt 0.141118 0.852770
vt 0.147028 0.851231
vt 0.146260 0.852000
vt 0.146260 0.851231
vt 0.141887 0.840158
vt 0.141887 0.840928
vt 0.146260 0.846849
vt 0.141886 0.846849
vt 0.141886 0.845310
vt 0.147028 0.846849
vt 0.146260 0.852770
vt 0.141886 0.852770
vt 0.141886 0.851231
vt 0.141887 0.857151
vt 0.147797 0.852770
vt 0.147797 0.857151
vt 0.146261 0.857151
vt 0.147031 0.863072
vt 0.554184 0.751416
vt 0.554182 0.751652
vt 0.554181 0.751888
vt 0.554180 0.752124
vt 0.554178 0.752360
vt 0.554177 0.752596
vt 0.554175 0.752832
vt 0.554174 0.753068
vt 0.554173 0.753304
vt 0.554171 0.753540
vt 0.554170 0.753776
vt 0.554168 0.754012
vt 0.554167 0.754248
vt 0.554166 0.754484
vt 0.554164 0.754720
vt 0.554163 0.754956
vt 0.554162 0.755192
vt 0.553789 0.755482
vt 0.553815 0.751126
vt 0.557820 0.751416
vt 0.557593 0.751416
vt 0.557366 0.751416
vt 0.557138 0.751416
vt 0.556911 0.751416
vt 0.556684 0.751416
vt 0.556457 0.751416
vt 0.556229 0.751416
vt 0.556002 0.751416
vt 0.555775 0.751416
vt 0.555547 0.751416
vt 0.555320 0.751416
vt 0.555093 0.751416
vt 0.554866 0.751416
vt 0.554638 0.751416
vt 0.554411 0.751416
vt 0.558193 0.751126
vt 0.557798 0.755192
vt 0.557799 0.754956
vt 0.557801 0.754720
vt 0.557802 0.754484
vt 0.557804 0.754248
vt 0.557805 0.754012
vt 0.557806 0.753776
vt 0.557812 0.752832
vt 0.557813 0.752596
vt 0.557815 0.752360
vt 0.557816 0.752124
vt 0.557817 0.751888
vt 0.557819 0.751652
vt 0.558167 0.755482
vt 0.554389 0.755192
vt 0.554616 0.755192
vt 0.554843 0.755192
vt 0.555071 0.755192
vt 0.555298 0.755192
vt 0.555525 0.755192
vt 0.555752 0.755192
vt 0.555980 0.755192
vt 0.556207 0.755192
vt 0.556434 0.755192
vt 0.556661 0.755192
vt 0.556889 0.755192
vt 0.557116 0.755192
vt 0.557343 0.755192
vt 0.557571 0.755192
vt 0.555781 0.745058
vt 0.555553 0.745058
vt 0.555326 0.745058
vt 0.555099 0.745058
vt 0.554871 0.745058
vt 0.554644 0.745058
vt 0.554417 0.745058
vt 0.554190 0.745058
vt 0.553962 0.745058
vt 0.553735 0.745058
vt 0.553508 0.745058
vt 0.553280 0.745058
vt 0.553053 0.745058
vt 0.552826 0.745058
vt 0.552599 0.745058
vt 0.552371 0.745058
vt 0.552144 0.745058
vt 0.551775 0.744768
vt 0.556153 0.744768
vt 0.552143 0.745294
vt 0.552141 0.745530
vt 0.552140 0.745766
vt 0.552139 0.746002
vt 0.552137 0.746238
vt 0.552136 0.746474
vt 0.552134 0.746710
vt 0.552133 0.746946
vt 0.552132 0.747182
vt 0.552130 0.747418
vt 0.552129 0.747654
vt 0.552127 0.747890
vt 0.552126 0.748126
vt 0.552125 0.748362
vt 0.552123 0.748598
vt 0.552122 0.748834
vt 0.551749 0.749124
vt 0.555758 0.748834
vt 0.555760 0.748598
vt 0.555761 0.748362
vt 0.555762 0.748126
vt 0.555764 0.747890
vt 0.555765 0.747654
vt 0.555767 0.747418
vt 0.555772 0.746474
vt 0.555773 0.746238
vt 0.555775 0.746002
vt 0.555776 0.745766
vt 0.555778 0.745530
vt 0.555779 0.745294
vt 0.556127 0.749124
vt 0.552349 0.748834
vt 0.552576 0.748834
vt 0.552804 0.748834
vt 0.553031 0.748834
vt 0.553258 0.748834
vt 0.553485 0.748834
vt 0.553713 0.748834
vt 0.553940 0.748834
vt 0.554167 0.748834
vt 0.554394 0.748834
vt 0.554622 0.748834
vt 0.554849 0.748834
vt 0.555076 0.748834
vt 0.555304 0.748834
vt 0.555531 0.748834
vt 0.140244 0.852000
vt 0.136083 0.852000
vt 0.136083 0.852000
vt 0.140244 0.852000
vt 0.850191 0.942926
vt 0.844270 0.948067
vt 0.839888 0.948059
vt 0.845809 0.942918
vt 0.146260 0.846955
vt 0.146260 0.851124
vt 0.146260 0.851124
vt 0.146260 0.846955
vt 0.146128 0.851244
vt 0.140634 0.851911
vt 0.141851 0.851301
vt 0.146143 0.851236
vt 0.136394 0.851931
vt 0.148212 0.847707
vt 0.167227 0.854046
vt 0.136641 0.852013
vt 0.140350 0.852000
vt 0.142210 0.847173
vt 0.145936 0.847173
vt 0.145936 0.850906
vt 0.142210 0.850906
vt 0.141886 0.851231
vt 0.140244 0.852000
vt 0.140244 0.852000
vt 0.146260 0.851124
vt 0.146260 0.851124
vt 0.146260 0.846955
vt 0.165886 0.854849
vt 0.170260 0.854849
vt 0.146128 0.851244
vt 0.140634 0.851911
vt 0.141851 0.851301
vt 0.146143 0.851236
vt 0.146260 0.846849
vt 0.836158 0.936212
vt 0.141886 0.846849
vt 0.834090 0.936270
vt 0.144982 0.842644
vt 0.145209 0.842881
vt 0.144982 0.842881
vt 0.144755 0.842881
vt 0.842544 0.950124
vt 0.810892 0.915659
vt 0.863491 0.937193
vt 0.863262 0.937429
vt 0.863718 0.937193
vt 0.148337 0.866705
vt 0.141445 0.826234
vt 0.148326 0.866733
vt 0.148337 0.866739
vt 0.148347 0.866727
vt 0.148358 0.866716
vt 0.148369 0.866705
vt 0.148380 0.866716
vt 0.148391 0.866727
vt 0.148402 0.866739
vt 0.148413 0.866727
vt 0.148424 0.866716
vt 0.148435 0.866705
vt 0.148446 0.866705
vt 0.148445 0.866716
vt 0.148445 0.866727
vt 0.148445 0.866739
vt 0.148445 0.866750
vt 0.148445 0.866762
vt 0.148445 0.866773
vt 0.148445 0.866784
vt 0.148435 0.866784
vt 0.148424 0.866784
vt 0.148413 0.866784
vt 0.148402 0.866784
vt 0.148391 0.866784
vt 0.148380 0.866784
vt 0.148369 0.866784
vt 0.148358 0.866784
vt 0.148347 0.866784
vt 0.148337 0.866784
vt 0.148326 0.866784
vt 0.148315 0.866784
vt 0.148304 0.866784
vt 0.148293 0.866784
vt 0.148282 0.866784
vt 0.148271 0.866784
vt 0.148271 0.866773
vt 0.148271 0.866762
vt 0.148271 0.866750
vt 0.148271 0.866739
vt 0.148271 0.866727
vt 0.148271 0.866716
vt 0.148271 0.866705
vt 0.148271 0.866693
vt 0.148304 0.866693
vt 0.148304 0.866705
vt 0.148315 0.866705
vt 0.148326 0.866705
vt 0.144755 0.843119
vt 0.144755 0.843356
vt 0.878746 0.955784
vt 0.878972 0.956020
vt 0.878283 0.957200
vt 0.878057 0.956964
vt 0.870739 0.935456
vt 0.870968 0.935220
vt 0.877608 0.956020
vt 0.877834 0.956256
vt 0.878735 0.957672
vt 0.878509 0.957436
vt 0.870513 0.935220
vt 0.877154 0.955902
vt 0.877382 0.955784
vt 0.877151 0.956492
vt 0.877378 0.956492
vt 0.862359 0.936485
vt 0.862587 0.936249
vt 0.145209 0.843119
vt 0.860766 0.936721
vt 0.860993 0.936721
vt 0.565935 0.770025
vt 0.565957 0.770047
vt 0.565979 0.770070
vt 0.566000 0.770093
vt 0.537916 0.752416
vt 0.565913 0.770036
vt 0.861441 0.937901
vt 0.861214 0.937783
vt 0.861452 0.936013
vt 0.861678 0.936249
vt 0.846583 0.939449
vt 0.846808 0.939685
vt 0.863034 0.937665
vt 0.862805 0.937901
vt 0.862579 0.937665
vt 0.861224 0.936131
vt 0.558087 0.750014
vt 0.842545 0.950064
vt 0.831834 0.943323
vt 0.537949 0.752462
vt 0.565978 0.770161
vt 0.565956 0.770183
vt 0.565934 0.770206
vt 0.565912 0.770195
vt 0.537916 0.752462
vt 0.862816 0.936013
vt 0.863042 0.936249
vt 0.860765 0.936957
vt 0.863494 0.936721
vt 0.863721 0.936721
vt 0.862353 0.937429
vt 0.863268 0.936485
vt 0.861670 0.937665
vt 0.861445 0.937193
vt 0.861218 0.937193
vt 0.860991 0.937193
vt 0.879141 0.969137
vt 0.862199 0.958575
vt 0.830879 0.916497
vt 0.879129 0.969078
vt 0.861888 0.958151
vt 0.145209 0.855198
vt 0.145209 0.854960
vt 0.876924 0.956492
vt 0.878964 0.957436
vt 0.879650 0.956728
vt 0.879649 0.956964
vt 0.879424 0.956492
vt 0.879651 0.956492
vt 0.166639 0.852250
vt 0.134516 0.817243
vt 0.143619 0.854723
vt 0.143392 0.854723
vt 0.143165 0.854723
vt 0.142938 0.854723
vt 0.142938 0.854960
vt 0.142257 0.854960
vt 0.142257 0.854723
vt 0.142257 0.854486
vt 0.142257 0.854248
vt 0.142257 0.854011
vt 0.142257 0.853773
vt 0.142257 0.853536
vt 0.142257 0.853298
vt 0.142257 0.853061
vt 0.142484 0.853061
vt 0.142711 0.853061
vt 0.142938 0.853061
vt 0.143165 0.853061
vt 0.143392 0.853061
vt 0.143619 0.853061
vt 0.143846 0.853061
vt 0.144073 0.853061
vt 0.144300 0.853061
vt 0.144527 0.853061
vt 0.144755 0.853061
vt 0.144982 0.853061
vt 0.145209 0.853061
vt 0.145436 0.853061
vt 0.145663 0.853061
vt 0.145890 0.853061
vt 0.145890 0.853298
vt 0.145890 0.853536
vt 0.145890 0.853773
vt 0.145890 0.854011
vt 0.145890 0.854248
vt 0.145890 0.854486
vt 0.145890 0.854723
vt 0.145663 0.854723
vt 0.145436 0.854486
vt 0.145209 0.854248
vt 0.144982 0.854011
vt 0.144755 0.854248
vt 0.144528 0.854486
vt 0.144301 0.854723
vt 0.144074 0.854486
vt 0.143846 0.854248
vt 0.143619 0.854011
vt 0.879198 0.956256
vt 0.879421 0.956964
vt 0.879192 0.957200
vt 0.144755 0.854960
vt 0.144755 0.855198
vt 0.863720 0.936957
vt 0.861904 0.936485
vt 0.862130 0.936721
vt 0.861898 0.937429
vt 0.860763 0.937193
vt 0.878060 0.956492
vt 0.878289 0.956256
vt 0.877829 0.957200
vt 0.877600 0.957436
vt 0.145209 0.854723
vt 0.877375 0.956964
vt 0.877148 0.956964
vt 0.876696 0.956492
vt 0.878518 0.956020
vt 0.877371 0.957672
vt 0.876921 0.956964
vt 0.847037 0.939449
vt 0.862127 0.937193
vt 0.876693 0.956964
vt 0.876695 0.956728
vt 0.879141 0.969111
vt 0.862199 0.958549
vt 0.879128 0.969169
vt 0.144755 0.854723
vt 0.870970 0.934748
vt 0.870745 0.934512
vt 0.870516 0.934748
vt 0.877145 0.957554
vt 0.861221 0.936721
vt 0.861448 0.936721
vt 0.847040 0.938977
vt 0.846814 0.938741
vt 0.145209 0.843356
vt 0.846585 0.938977
vt 0.144982 0.843356
vt 0.144982 0.843594
vt 0.570805 0.753901
vt 0.570579 0.753665
vt 0.570353 0.753429
vt 0.570127 0.753193
vt 0.570129 0.752957
vt 0.570356 0.752957
vt 0.570583 0.752957
vt 0.570582 0.753193
vt 0.570808 0.753429
vt 0.571036 0.753193
vt 0.571038 0.752957
vt 0.571265 0.752957
vt 0.571492 0.752957
vt 0.571720 0.752957
vt 0.571718 0.753193
vt 0.571491 0.753193
vt 0.571262 0.753429
vt 0.571034 0.753665
vt 0.571494 0.752721
vt 0.571721 0.752721
vt 0.571039 0.752721
vt 0.570813 0.752485
vt 0.570585 0.752721
vt 0.570130 0.752721
vt 0.570359 0.752485
vt 0.570587 0.752249
vt 0.570816 0.752013
vt 0.571042 0.752249
vt 0.571268 0.752485
vt 0.878090 0.968270
vt 0.570513 0.764728
vt 0.570968 0.764728
vt 0.570515 0.764492
vt 0.144982 0.855435
vt 0.132254 0.840158
vt 0.144982 0.854486
vt 0.569716 0.764964
vt 0.563733 0.757253
vt 0.570057 0.764964
vt 0.569789 0.752721
vt 0.569786 0.753193
vt 0.569445 0.753193
vt 0.569218 0.753193
vt 0.568991 0.753193
vt 0.568763 0.753193
vt 0.568765 0.752957
vt 0.568766 0.752721
vt 0.568993 0.752721
vt 0.569221 0.752721
vt 0.569448 0.752721
vt 0.856000 0.960088
vt 0.858960 0.960094
vt 0.858960 0.963055
vt 0.856000 0.963050
vt 0.144074 0.854960
vt 0.147029 0.854960
vt 0.147029 0.857921
vt 0.144074 0.857921
vt 0.147030 0.860881
vt 0.144075 0.860881
vt 0.147031 0.863842
vt 0.144076 0.863842
vt 0.144074 0.840158
vt 0.147029 0.840158
vt 0.147029 0.843119
vt 0.144073 0.843119
vt 0.147028 0.846079
vt 0.144073 0.846079
vt 0.856000 0.954167
vt 0.858960 0.954173
vt 0.858960 0.957133
vt 0.856000 0.957128
vt 0.861921 0.960100
vt 0.861921 0.963061
vt 0.149984 0.854960
vt 0.149985 0.857921
vt 0.149986 0.860881
vt 0.149987 0.863842
vt 0.149985 0.840158
vt 0.149984 0.843119
vt 0.149984 0.846079
vt 0.861921 0.954179
vt 0.861921 0.957139
vt 0.864881 0.960106
vt 0.864881 0.963067
vt 0.152940 0.854960
vt 0.152941 0.857921
vt 0.152941 0.860881
vt 0.152942 0.863842
vt 0.152940 0.840158
vt 0.152940 0.843119
vt 0.152939 0.846079
vt 0.864881 0.954185
vt 0.864881 0.957146
vt 0.867842 0.960113
vt 0.867842 0.963074
vt 0.155896 0.854960
vt 0.155896 0.857921
vt 0.155897 0.860881
vt 0.155898 0.863842
vt 0.155896 0.840158
vt 0.155896 0.843119
vt 0.155895 0.846079
vt 0.867842 0.954191
vt 0.867842 0.957152
vt 0.844158 0.960067
vt 0.847119 0.960072
vt 0.847119 0.963033
vt 0.844158 0.963028
vt 0.132254 0.854960
vt 0.135209 0.854960
vt 0.135209 0.857921
vt 0.132255 0.857921
vt 0.135210 0.860881
vt 0.132255 0.860881
vt 0.135211 0.863842
vt 0.132256 0.863842
vt 0.135209 0.840158
vt 0.135208 0.843119
vt 0.132254 0.843119
vt 0.135208 0.846079
vt 0.132254 0.846079
vt 0.844158 0.954145
vt 0.847119 0.954151
vt 0.847119 0.957111
vt 0.844158 0.957106
vt 0.850079 0.960077
vt 0.850079 0.963039
vt 0.138163 0.854960
vt 0.138164 0.857921
vt 0.138165 0.860881
vt 0.138166 0.863842
vt 0.138164 0.840158
vt 0.138163 0.843119
vt 0.138163 0.846079
vt 0.850079 0.954156
vt 0.850079 0.957117
vt 0.853040 0.960083
vt 0.853040 0.963044
vt 0.141118 0.854960
vt 0.141119 0.857921
vt 0.141120 0.860881
vt 0.141121 0.863842
vt 0.141119 0.840158
vt 0.141118 0.843119
vt 0.141118 0.846079
vt 0.853040 0.954161
vt 0.853040 0.957122
vt 0.559988 0.717227
vt 0.556259 0.717227
vt 0.555936 0.716904
vt 0.560314 0.716904
vt 0.556237 0.720937
vt 0.555911 0.721260
vt 0.559966 0.720937
vt 0.560289 0.721260
vt 0.145890 0.855435
vt 0.145890 0.855198
vt 0.145890 0.854960
vt 0.145890 0.842644
vt 0.145890 0.843594
vt 0.145890 0.843356
vt 0.145890 0.843119
vt 0.145890 0.842881
vt 0.151771 0.856836
vt 0.151770 0.853085
vt 0.152171 0.852770
vt 0.152172 0.857151
vt 0.148198 0.853085
vt 0.148199 0.856836
vt 0.541532 0.730621
vt 0.541551 0.727266
vt 0.541791 0.727080
vt 0.541769 0.730808
vt 0.538454 0.727266
vt 0.538217 0.727080
vt 0.538435 0.730621
vt 0.538195 0.730808
vt 0.568924 0.764492
vt 0.569151 0.764492
vt 0.569378 0.764492
vt 0.569375 0.764964
vt 0.569148 0.764964
vt 0.568921 0.764964
vt 0.568693 0.764964
vt 0.568695 0.764728
vt 0.568696 0.764492
vt 0.575141 0.773176
vt 0.575128 0.773169
vt 0.558217 0.762575
vt 0.575179 0.773137
vt 0.575166 0.773150
vt 0.575153 0.773163
vt 0.557578 0.761753
vt 0.557888 0.762151
vt 0.575129 0.773078
vt 0.575141 0.773072
vt 0.575154 0.773085
vt 0.575166 0.773098
vt 0.139775 0.848562
vt 0.143392 0.855792
vt 0.143619 0.855910
vt 0.143847 0.855673
vt 0.144074 0.855435
vt 0.144301 0.855198
vt 0.144528 0.855435
vt 0.144755 0.855673
vt 0.144982 0.855910
vt 0.145209 0.855673
vt 0.145436 0.855435
vt 0.145663 0.855198
vt 0.145890 0.855673
vt 0.145891 0.855910
vt 0.145891 0.856148
vt 0.145891 0.856385
vt 0.145891 0.856623
vt 0.145891 0.856860
vt 0.145663 0.856860
vt 0.145436 0.856860
vt 0.145209 0.856860
vt 0.144982 0.856860
vt 0.144755 0.856860
vt 0.144528 0.856860
vt 0.144301 0.856860
vt 0.144074 0.856860
vt 0.143847 0.856860
vt 0.143620 0.856860
vt 0.143393 0.856860
vt 0.143165 0.856860
vt 0.142938 0.856860
vt 0.142711 0.856860
vt 0.142484 0.856860
vt 0.142257 0.856860
vt 0.142257 0.856623
vt 0.142257 0.856385
vt 0.142257 0.856148
vt 0.142257 0.855910
vt 0.142257 0.855673
vt 0.142257 0.855435
vt 0.142257 0.855198
vt 0.142938 0.855198
vt 0.143165 0.855198
vt 0.143392 0.855198
vt 0.842553 0.950103
vt 0.831833 0.943340
vt 0.186660 0.873509
vt 0.154564 0.838622
vt 0.159917 0.870034
vt 0.159908 0.870034
vt 0.159900 0.870034
vt 0.159891 0.870034
vt 0.159891 0.870043
vt 0.159866 0.870043
vt 0.159866 0.870034
vt 0.159866 0.870025
vt 0.159866 0.870016
vt 0.159866 0.870007
vt 0.159866 0.869999
vt 0.159866 0.869990
vt 0.159866 0.869981
vt 0.159866 0.869972
vt 0.159874 0.869972
vt 0.159883 0.869972
vt 0.159891 0.869972
vt 0.159900 0.869972
vt 0.159908 0.869972
vt 0.159917 0.869972
vt 0.159925 0.869972
vt 0.159934 0.869972
vt 0.159942 0.869972
vt 0.159950 0.869972
vt 0.159959 0.869972
vt 0.159967 0.869972
vt 0.159976 0.869972
vt 0.159984 0.869972
vt 0.159993 0.869972
vt 0.160001 0.869972
vt 0.160001 0.869981
vt 0.160001 0.869990
vt 0.160001 0.869999
vt 0.160001 0.870007
vt 0.160001 0.870016
vt 0.160001 0.870025
vt 0.160001 0.870034
vt 0.159993 0.870034
vt 0.159984 0.870025
vt 0.159976 0.870016
vt 0.159967 0.870007
vt 0.159959 0.870016
vt 0.159950 0.870025
vt 0.159942 0.870034
vt 0.159933 0.870025
vt 0.159925 0.870016
vt 0.159917 0.870007
vt 0.562010 0.742974
vt 0.562032 0.742963
vt 0.562260 0.742849
vt 0.551976 0.748000
vt 0.552082 0.748000
vt 0.552073 0.748000
vt 0.556244 0.748000
vt 0.556634 0.747911
vt 0.556350 0.748000
vt 0.562260 0.747124
vt 0.562260 0.747231
vt 0.562127 0.747244
vt 0.562010 0.742974
vt 0.562028 0.742965
vt 0.552075 0.748000
vt 0.552082 0.748000
vt 0.557886 0.747231
vt 0.557851 0.747301
vt 0.556244 0.748000
vt 0.562260 0.747124
vt 0.562143 0.747236
vt 0.548212 0.743707
vt 0.546031 0.742963
vt 0.548629 0.743638
vt 0.535976 0.748000
vt 0.536083 0.748000
vt 0.536074 0.748000
vt 0.540244 0.748000
vt 0.540634 0.747911
vt 0.540350 0.748000
vt 0.546260 0.747124
vt 0.546260 0.747231
vt 0.546127 0.747244
vt 0.567227 0.750046
vt 0.567891 0.750059
vt 0.569486 0.750784
vt 0.536075 0.748000
vt 0.536083 0.748000
vt 0.535976 0.748000
vt 0.541886 0.747231
vt 0.541851 0.747301
vt 0.540244 0.748000
vt 0.546260 0.747124
vt 0.546143 0.747236
vt 0.552226 0.747875
vt 0.552205 0.747886
vt 0.562260 0.742955
vt 0.557886 0.747231
vt 0.552208 0.747884
vt 0.552226 0.747875
vt 0.556350 0.748000
vt 0.562260 0.742955
vt 0.536394 0.747931
vt 0.536205 0.747886
vt 0.546260 0.742955
vt 0.546260 0.742849
vt 0.536750 0.748064
vt 0.536641 0.748013
vt 0.540350 0.748000
vt 0.546260 0.742955
vt 0.136226 0.851875
vt 0.146011 0.846974
vt 0.146011 0.846974
vt 0.136226 0.851875
s 0
usemtl TextureAtlas
f 42/1/1 2/2/1 4/3/1 43/4/1
f 43/4/2 4/3/2 6/5/2 44/6/2
f 44/6/3 6/5/3 8/7/3 45/8/3
f 45/8/4 8/7/4 10/9/4 46/10/4
f 46/10/5 10/9/5 12/11/5 47/12/5
f 47/12/6 12/11/6 14/13/6 48/14/6
f 4/15/7 2/16/7 16/17/7 14/18/7 12/19/7 10/20/7 8/21/7 6/22/7
f 48/14/8 14/13/8 16/23/8 49/24/8
f 49/24/9 16/23/9 2/25/9 42/26/9
f 15/27/10 1/28/10 17/28/10 24/27/10
f 22/29/6 23/30/6 31/30/6 30/29/6
f 1/31/11 3/32/11 18/32/11 17/31/11
f 5/33/12 7/34/12 20/34/12 19/33/12
f 11/29/13 13/30/13 23/30/13 22/29/13
f 7/34/14 9/35/14 21/35/14 20/34/14
f 13/30/15 15/27/15 24/27/15 23/30/15
f 3/32/16 5/33/16 19/33/16 18/32/16
f 9/35/17 11/29/17 22/29/17 21/35/17
f 25/31/18 26/32/18 34/32/18 33/31/18
f 20/34/4 21/35/4 29/35/4 28/34/4
f 18/32/2 19/33/2 27/33/2 26/32/2
f 23/30/8 24/27/8 32/27/8 31/30/8
f 21/35/5 22/29/5 30/29/5 29/35/5
f 19/33/3 20/34/3 28/34/3 27/33/3
f 17/31/1 18/32/1 26/32/1 25/31/1
f 24/27/9 17/28/9 25/28/9 32/27/9
f 39/36/19 40/37/19 41/36/19
f 32/27/20 25/28/20 33/28/20 40/27/20
f 30/29/21 31/30/21 39/30/21 38/29/21
f 28/34/22 29/35/22 37/35/22 36/34/22
f 26/32/23 27/33/23 35/33/23 34/32/23
f 31/30/24 32/27/24 40/27/24 39/30/24
f 29/35/25 30/29/25 38/29/25 37/35/25
f 27/33/26 28/34/26 36/34/26 35/33/26
f 37/38/27 38/39/27 41/38/27
f 35/40/28 36/41/28 41/40/28
f 33/42/29 34/43/29 41/42/29
f 40/37/30 33/44/30 41/37/30
f 38/39/31 39/36/31 41/39/31
f 36/41/32 37/38/32 41/41/32
f 34/43/33 35/40/33 41/43/33
f 65/45/34 49/46/34 42/47/34 58/48/34
f 64/49/35 48/50/35 49/46/35 65/45/35
f 63/51/36 47/52/36 48/50/36 64/49/36
f 62/53/37 46/54/37 47/52/37 63/51/37
f 61/55/38 45/56/38 46/54/38 62/53/38
f 60/57/39 44/58/39 45/56/39 61/55/39
f 59/59/40 43/60/40 44/58/40 60/57/40
f 58/61/41 42/62/41 43/60/41 59/59/41
f 1/63/1 57/64/1 50/65/1 3/66/1
f 3/66/2 50/65/2 51/67/2 5/68/2
f 5/68/3 51/67/3 52/69/3 7/70/3
f 7/70/4 52/69/4 53/71/4 9/72/4
f 9/72/5 53/71/5 54/73/5 11/74/5
f 11/74/6 54/73/6 55/75/6 13/76/6
f 13/76/8 55/75/8 56/77/8 15/78/8
f 15/78/9 56/77/9 57/79/9 1/80/9
f 73/81/1 58/82/1 59/83/1 66/84/1
f 66/84/2 59/83/2 60/85/2 67/86/2
f 67/86/3 60/85/3 61/87/3 68/88/3
f 68/88/4 61/87/4 62/89/4 69/90/4
f 69/90/5 62/89/5 63/91/5 70/92/5
f 70/92/6 63/91/6 64/93/6 71/94/6
f 71/94/8 64/93/8 65/95/8 72/96/8
f 72/96/9 65/95/9 58/97/9 73/98/9
f 56/99/42 72/100/42 73/101/42 57/102/42
f 55/103/43 71/104/43 72/100/43 56/99/43
f 54/105/44 70/106/44 71/104/44 55/103/44
f 53/107/45 69/108/45 70/106/45 54/105/45
f 52/109/46 68/110/46 69/108/46 53/107/46
f 51/111/47 67/112/47 68/110/47 52/109/47
f 50/113/48 66/114/48 67/112/48 51/111/48
f 57/115/49 73/116/49 66/114/49 50/113/49
f 88/117/50 90/118/50 77/119/50 75/120/50
f 95/121/7 83/122/7 78/123/7 89/124/7
f 97/125/51 93/126/51 108/126/51 109/125/51
f 74/127/52 75/128/52 98/129/52
f 77/130/53 486/131/53 100/132/53
f 80/133/54 99/134/54 82/135/54
f 487/136/55 84/137/55 101/138/55
f 86/139/56 104/140/56 88/141/56
f 489/142/57 90/118/57 105/143/57
f 92/144/58 93/145/58 103/146/58
f 488/147/59 102/148/59 97/149/59
f 80/133/60 74/127/60 98/129/60 99/134/60
f 75/150/61 77/130/61 100/132/61 98/151/61
f 486/131/62 487/136/62 101/138/62 100/132/62
f 84/152/63 82/153/63 99/154/63 101/138/63
f 92/144/64 80/133/64 82/135/64 93/145/64
f 487/155/65 488/147/65 97/149/65 84/152/65
f 102/156/66 103/157/66 93/158/66 97/149/66
f 86/139/67 92/144/67 103/157/67 104/159/67
f 488/160/68 489/161/68 105/162/68 102/156/68
f 90/118/69 88/117/69 104/159/69 105/162/69
f 74/127/70 86/139/70 88/141/70 75/128/70
f 489/142/71 486/163/71 77/119/71 90/118/71
f 80/133/72 92/144/72 86/139/72 74/127/72
f 76/164/73 272/165/73 177/166/73 230/167/73 139/168/73 252/169/73 159/170/73 213/171/73 122/172/73 264/173/73 169/174/73 222/175/73 131/176/73 244/177/73 151/178/73 205/179/73 81/180/73 99/181/73 98/182/73
f 79/183/74 273/184/74 178/185/74 231/186/74 140/187/74 253/188/74 160/189/74 214/190/74 123/191/74 265/192/74 170/193/74 223/194/74 132/195/74 245/196/74 152/197/74 206/198/74 76/164/74 98/182/74 100/199/74
f 85/200/75 274/201/75 179/202/75 232/203/75 141/204/75 254/205/75 161/206/75 171/207/75 224/208/75 133/209/75 246/210/75 153/211/75 207/212/75 79/183/75 100/199/75 101/213/75
f 81/180/76 275/214/76 180/215/76 233/216/76 142/217/76 255/218/76 162/219/76 216/220/76 125/221/76 267/222/76 172/223/76 225/224/76 134/225/76 247/226/76 154/227/76 208/228/76 85/200/76 101/213/76 99/181/76
f 96/229/77 276/230/77 181/231/77 234/232/77 143/233/77 256/234/77 163/235/77 217/236/77 126/237/77 268/238/77 173/239/77 226/240/77 135/241/77 248/242/77 155/243/77 209/244/77 94/245/77 103/246/77 102/247/77
f 94/245/78 277/248/78 182/249/78 235/250/78 144/251/78 257/252/78 164/253/78 218/254/78 127/255/78 269/256/78 174/257/78 227/258/78 136/259/78 249/260/78 156/261/78 210/262/78 87/263/78 104/264/78 103/246/78
f 91/265/79 278/266/79 183/267/79 236/268/79 145/269/79 258/270/79 165/271/79 175/272/79 228/273/79 137/274/79 250/275/79 157/276/79 211/277/79 96/229/79 102/247/79 105/278/79
f 87/263/80 279/279/80 184/280/80 237/281/80 146/282/80 259/283/80 166/284/80 220/285/80 129/286/80 271/287/80 176/288/80 229/289/80 138/290/80 251/291/80 158/292/80 212/293/80 91/265/80 105/278/80 104/264/80
f 506/294/72 504/295/72 516/296/72 520/297/72
f 84/298/7 97/125/7 109/125/7 106/298/7
f 93/299/72 82/300/72 107/300/72 108/299/72
f 82/301/81 84/298/81 106/298/81 107/301/81
f 502/302/7 509/303/7 521/304/7 513/305/7
f 515/153/82 514/152/82 478/152/82 479/153/82
f 511/306/51 507/307/51 519/308/51 522/309/51
f 527/310/51 524/311/51 536/312/51 541/313/51
f 108/145/83 107/135/83 505/135/83 508/314/83
f 106/152/84 109/149/84 510/149/84 501/152/84
f 111/315/85 110/316/85 113/317/85 112/318/85
f 523/149/86 518/319/86 480/158/86 481/149/86
f 518/145/87 515/135/87 479/135/87 480/145/87
f 514/152/88 523/149/88 481/149/88 478/152/88
f 530/320/72 528/296/72 540/295/72 544/321/72
f 526/305/7 533/322/7 545/323/7 537/324/7
f 539/325/89 538/326/89 482/326/89 483/325/89
f 535/327/81 531/328/81 543/329/81 546/330/81
f 116/145/90 115/135/90 529/135/90 532/314/90
f 114/152/91 117/149/91 534/149/91 525/331/91
f 119/315/50 118/316/50 121/317/50 120/318/50
f 547/149/92 542/158/92 484/158/92 485/149/92
f 542/145/93 539/135/93 483/135/93 484/145/93
f 538/152/94 547/149/94 485/149/94 482/152/94
f 90/332/51 114/332/51 115/332/51 88/332/51
f 77/332/7 117/332/7 114/332/7 90/332/7
f 75/332/81 116/332/81 117/332/81 77/332/81
f 88/332/72 115/332/72 116/332/72 75/332/72
f 109/149/95 108/158/95 508/158/95 510/149/95
f 115/153/96 114/152/96 525/152/96 529/153/96
f 117/149/97 116/158/97 532/158/97 534/149/97
f 107/153/98 106/152/98 501/152/98 505/333/98
f 386/334/85 383/334/85 317/334/85 284/334/85 314/334/85
f 191/335/81 298/336/81 242/337/81 328/338/81
f 407/339/99 333/339/99 406/340/99 498/340/99
f 316/341/100 198/342/100 221/342/100 403/341/100
f 215/343/85 316/341/85 403/341/85 307/343/85
f 382/334/50 381/334/50 328/334/50 242/334/50 298/334/50
f 288/344/81 406/345/81 333/346/81 193/347/81 326/348/81 185/349/81 315/350/81 199/351/81 325/352/81 149/353/81 318/354/81 198/355/81 316/356/81 215/357/81 161/358/81 254/359/81 141/360/81 232/361/81 179/362/81 274/363/81 85/364/81 208/365/81 154/366/81 247/367/81 134/368/81 225/369/81 172/370/81 267/371/81 125/372/81 216/373/81 162/374/81 255/375/81 142/376/81 233/377/81 180/378/81 275/379/81 81/380/81 205/381/81 151/382/81 244/383/81 131/384/81 222/385/81 169/386/81 264/387/81 122/388/81 260/389/81 312/390/81 283/391/81 313/392/81
f 261/393/101 314/394/101 386/394/101 287/393/101
f 147/395/100 302/396/100 362/396/100 355/395/100
f 197/397/102 320/398/102 369/398/102 346/397/102
f 195/399/103 322/400/103 371/400/103 345/399/103
f 299/401/100 168/402/100 351/402/100 359/401/100
f 150/403/102 324/404/102 373/404/102 340/403/102
f 319/405/104 195/399/104 345/399/104 368/405/104
f 336/406/105 189/407/105 358/407/105 360/406/105
f 301/408/85 293/409/85 350/409/85 361/408/85
f 200/410/102 310/411/102 387/411/102 380/410/102
f 238/412/106 298/336/106 382/336/106 388/412/106
f 327/413/50 243/414/50 291/414/50 411/413/50
f 391/415/81 394/416/81 385/417/81 396/418/81 499/419/81 392/420/81
f 193/421/105 333/422/105 407/422/105 130/421/105
f 192/423/107 295/424/107 394/424/107 391/423/107
f 314/425/108 194/426/108 201/426/108 386/425/108
f 318/427/100 149/428/100 289/428/100 402/427/100
f 149/428/109 325/429/109 401/429/109 289/428/109
f 309/430/110 192/423/110 391/423/110 392/430/110
f 198/342/100 318/427/100 402/427/100 221/342/100
f 388/431/81 287/431/81 381/431/81 382/431/81
f 392/432/111 499/433/111 400/340/111 309/432/111
f 404/434/81 285/435/81 405/436/81 130/437/81 407/438/81 498/439/81
f 148/440/107 297/441/107 389/441/107 390/440/107
f 260/442/72 327/413/72 411/413/72 393/442/72
f 334/443/50 266/444/50 395/444/50 397/443/50
f 325/429/109 199/445/109 187/445/109 401/429/109
f 287/431/81 388/431/81 383/431/81 386/431/81
f 204/446/107 334/443/107 397/443/107 398/446/107
f 326/447/100 193/421/100 130/421/100 405/447/100
f 288/448/85 313/449/85 410/449/85 379/448/85
f 313/449/85 283/450/85 399/450/85 410/449/85
f 290/451/50 348/452/50 494/453/50 496/453/50
f 336/454/99 360/454/99 495/455/99 497/453/99
f 322/456/112 240/457/112 352/457/112 371/456/112
f 241/458/85 301/408/85 361/408/85 339/458/85
f 323/459/107 150/403/107 340/403/107 372/459/107
f 189/407/100 299/401/100 359/401/100 358/407/100
f 128/460/7 219/461/7 337/461/7 338/460/7
f 332/462/85 270/463/85 354/463/85 377/462/85
f 336/464/51 497/465/51 293/466/51 301/467/51 241/468/51 330/469/51 262/470/51 127/471/51 218/472/51 164/473/51 257/474/51 144/475/51 235/476/51 182/477/51 277/478/51 94/479/51 209/480/51 155/481/51 248/482/51 135/483/51 226/484/51 173/485/51 268/486/51 126/487/51 217/488/51 163/489/51 256/490/51 143/491/51 234/492/51 181/493/51 276/494/51 96/495/51 211/496/51 157/497/51 250/498/51 137/499/51 228/500/51 175/501/51 270/502/51 332/503/51 203/504/51 302/505/51 147/506/51 304/507/51 202/508/51 305/509/51 168/510/51 299/511/51 189/512/51
f 302/396/100 203/513/100 357/513/100 362/396/100
f 219/461/50 321/514/50 370/514/50 337/461/50
f 196/515/107 323/459/107 372/459/107 344/515/107
f 263/516/113 319/517/113 368/517/113 341/516/113
f 328/338/114 261/393/114 287/393/114 381/338/114
f 310/411/102 148/440/102 390/440/102 387/411/102
f 124/518/7 215/343/7 307/343/7 300/518/7
f 167/519/107 311/520/107 396/520/107 385/519/107
f 185/521/100 326/447/100 405/447/100 285/521/100
f 295/424/107 167/519/107 385/519/107 394/424/107
f 283/450/85 312/522/85 409/522/85 399/450/85
f 305/523/109 202/524/109 349/524/109 365/523/109
f 186/525/107 329/526/107 374/526/107 342/525/107
f 240/457/115 303/527/115 363/527/115 352/457/115
f 290/528/50 308/529/50 367/529/50 348/528/50
f 330/530/85 241/458/85 339/458/85 375/530/85
f 304/531/109 147/395/109 355/395/109 364/531/109
f 329/526/107 190/532/107 347/532/107 374/526/107
f 308/529/50 282/533/50 356/533/50 367/529/50
f 202/524/109 304/531/109 364/531/109 349/524/109
f 321/514/107 196/515/107 344/515/107 370/514/107
f 270/463/7 128/460/7 338/460/7 354/463/7
f 194/426/116 317/534/116 383/534/116 201/426/116
f 315/535/100 185/521/100 285/521/100 404/535/100
f 311/520/102 200/410/102 380/410/102 396/520/102
f 312/522/72 260/442/72 393/442/72 409/522/72
f 199/445/109 315/535/109 404/535/109 187/445/109
f 282/533/50 306/536/50 366/536/50 356/533/50
f 320/398/107 186/525/107 342/525/107 369/398/107
f 262/537/72 330/530/72 375/530/72 353/537/72
f 293/538/85 497/453/85 495/455/85 350/539/85
f 335/540/111 496/453/111 494/453/111 378/540/111
f 203/513/100 332/462/100 377/462/100 357/513/100
f 331/541/117 263/516/117 341/516/117 376/541/117
f 303/542/116 188/543/116 343/543/116 363/542/116
f 306/536/72 262/537/72 353/537/72 366/536/72
f 324/404/102 197/397/102 346/397/102 373/404/102
f 168/402/100 305/523/100 365/523/100 351/402/100
f 188/543/108 331/544/108 376/544/108 343/543/108
f 190/532/110 335/545/110 378/545/110 347/532/110
f 297/441/107 204/446/107 398/446/107 389/441/107
f 296/546/50 294/547/50 384/547/50 408/546/50
f 298/548/103 191/549/103 239/549/103 382/548/103
f 317/550/118 238/412/118 388/412/118 383/550/118
f 243/414/50 296/546/50 408/546/50 291/414/50
f 266/444/7 124/518/7 300/518/7 395/444/7
f 191/549/104 328/551/104 381/551/104 239/549/104
f 314/394/81 284/552/81 317/550/81 194/553/81
f 289/554/81 401/555/81 187/556/81 404/557/81 292/558/81 286/559/81 287/560/81 386/561/81 201/562/81 383/563/81 388/564/81 280/565/81 281/566/81 300/567/81 307/568/81 403/569/81 221/570/81 402/571/81
f 397/572/81 395/573/81 300/567/81 281/566/81 280/565/81 388/564/81 382/574/81 239/575/81 381/576/81 287/560/81 286/559/81 292/558/81 396/577/81 380/578/81 387/579/81 390/580/81 389/581/81 398/582/81
f 371/583/50 322/583/50 319/583/50 368/583/50
f 363/583/50 303/583/50 331/583/50 376/583/50
f 368/431/51 341/584/51 352/585/51 371/431/51
f 352/585/51 341/584/51 376/586/51 363/431/51
f 195/587/51 319/588/51 322/456/51
f 188/589/51 303/527/51 331/588/51
f 337/431/51 370/431/51 344/431/51 372/431/51 340/431/51 373/431/51 346/431/51 369/431/51 412/431/51 341/431/51 368/431/51 345/431/51 371/431/51 352/431/51 338/431/51
f 338/431/51 352/431/51 363/431/51 343/431/51 376/431/51 341/431/51 412/431/51 365/431/51 349/431/51 364/431/51 355/431/51 362/431/51 357/431/51 377/431/51 354/431/51
f 494/590/51 495/591/51 365/431/51 412/431/51 369/592/51
f 499/593/81 498/594/81 379/595/81 410/596/81 399/597/81 409/598/81 393/599/81 411/600/81 291/601/81 408/602/81 384/603/81
f 414/604/119 422/605/119 423/606/119 415/607/119
f 415/608/120 423/609/120 424/610/120 416/611/120
f 416/611/121 424/610/121 425/612/121 417/613/121
f 417/613/122 425/612/122 426/614/122 418/615/122
f 418/616/123 426/617/123 427/618/123 419/619/123
f 419/619/124 427/618/124 428/620/124 420/621/124
f 420/622/125 428/623/125 429/624/125 421/625/125
f 421/625/126 429/624/126 422/605/126 414/604/126
f 422/605/127 430/626/127 431/627/127 423/606/127
f 423/609/128 431/628/128 432/629/128 424/610/128
f 424/610/129 432/629/129 433/630/129 425/612/129
f 425/612/130 433/630/130 434/631/130 426/614/130
f 426/617/131 434/632/131 435/633/131 427/618/131
f 427/618/132 435/633/132 436/634/132 428/620/132
f 428/623/133 436/635/133 437/636/133 429/624/133
f 429/624/134 437/636/134 430/626/134 422/605/134
f 430/626/135 438/637/135 439/638/135 431/627/135
f 431/628/136 439/639/136 440/640/136 432/629/136
f 432/629/137 440/640/137 441/641/137 433/630/137
f 433/630/138 441/641/138 442/642/138 434/631/138
f 434/632/139 442/643/139 443/644/139 435/633/139
f 435/633/140 443/644/140 444/645/140 436/634/140
f 436/635/141 444/646/141 445/647/141 437/636/141
f 437/636/142 445/647/142 438/637/142 430/626/142
f 438/637/143 446/648/143 447/649/143 439/638/143
f 439/639/144 447/650/144 448/651/144 440/640/144
f 440/640/145 448/651/145 449/652/145 441/641/145
f 441/641/146 449/652/146 450/653/146 442/642/146
f 442/643/147 450/654/147 451/655/147 443/644/147
f 443/644/148 451/655/148 452/656/148 444/645/148
f 444/646/149 452/657/149 453/658/149 445/647/149
f 445/647/150 453/658/150 446/648/150 438/637/150
f 446/659/122 454/660/122 455/661/122 447/662/122
f 447/663/151 455/664/151 456/665/151 448/666/151
f 448/666/152 456/665/152 457/667/152 449/668/152
f 449/668/119 457/667/119 458/669/119 450/670/119
f 450/588/126 458/671/126 459/672/126 451/673/126
f 451/673/125 459/672/125 460/674/125 452/675/125
f 452/676/124 460/677/124 461/678/124 453/679/124
f 453/679/123 461/678/123 454/660/123 446/659/123
f 454/660/130 462/680/130 463/681/130 455/661/130
f 455/664/129 463/682/129 464/683/129 456/665/129
f 456/665/128 464/683/128 465/684/128 457/667/128
f 457/667/127 465/684/127 466/685/127 458/669/127
f 458/671/134 466/686/134 467/687/134 459/672/134
f 459/672/133 467/687/133 468/688/133 460/674/133
f 460/677/132 468/689/132 469/690/132 461/678/132
f 461/678/131 469/690/131 462/680/131 454/660/131
f 462/680/138 470/691/138 471/692/138 463/681/138
f 463/682/137 471/693/137 472/694/137 464/683/137
f 464/683/136 472/694/136 473/695/136 465/684/136
f 465/684/135 473/695/135 474/696/135 466/685/135
f 466/686/142 474/697/142 475/698/142 467/687/142
f 467/687/141 475/698/141 476/699/141 468/688/141
f 468/689/140 476/700/140 477/701/140 469/690/140
f 469/690/139 477/701/139 470/691/139 462/680/139
f 470/691/146 414/604/146 415/607/146 471/692/146
f 471/693/145 415/608/145 416/611/145 472/694/145
f 472/694/144 416/611/144 417/613/144 473/695/144
f 473/695/143 417/613/143 418/615/143 474/696/143
f 474/697/150 418/616/150 419/619/150 475/698/150
f 475/698/149 419/619/149 420/621/149 476/699/149
f 476/700/148 420/622/148 421/625/148 477/701/148
f 477/701/147 421/625/147 414/604/147 470/691/147
f 110/702/153 111/703/153 479/704/153 478/705/153
f 111/703/154 112/706/154 480/707/154 479/704/154
f 113/708/155 110/702/155 478/705/155 481/709/155
f 112/706/156 113/708/156 481/709/156 480/707/156
f 118/702/157 119/703/157 483/704/157 482/705/157
f 119/703/158 120/706/158 484/707/158 483/704/158
f 121/708/159 118/702/159 482/705/159 485/709/159
f 120/706/160 121/708/160 485/709/160 484/707/160
f 175/501/51 165/710/51 219/711/51 128/712/51 270/502/51
f 171/713/81 161/714/81 215/715/81 124/716/81 266/717/81
f 490/718/7 491/719/7 487/720/7 486/721/7
f 491/719/7 492/722/7 488/160/7 487/720/7
f 492/722/7 493/723/7 489/161/7 488/160/7
f 493/723/7 490/718/7 486/721/7 489/161/7
f 78/724/7 83/725/7 491/726/7 490/727/7
f 83/725/7 95/728/7 492/729/7 491/726/7
f 95/728/7 89/730/7 493/731/7 492/729/7
f 89/730/7 78/724/7 490/727/7 493/731/7
f 339/732/51 361/733/51 350/734/51 495/591/51 494/590/51 348/735/51 367/736/51 356/737/51 366/738/51 353/739/51 375/740/51
f 347/741/51 378/742/51 494/743/51 369/744/51 342/745/51 374/746/51
f 365/747/51 495/748/51 360/749/51 358/750/51 359/751/51 351/752/51
f 290/753/51 496/465/51 335/754/51 190/755/51 329/756/51 186/757/51 320/758/51 197/759/51 324/760/51 150/761/51 323/762/51 196/763/51 321/764/51 219/711/51 165/710/51 258/765/51 145/766/51 236/767/51 183/768/51 278/769/51 91/770/51 212/771/51 158/772/51 251/773/51 138/774/51 229/775/51 176/776/51 271/777/51 129/778/51 220/779/51 166/780/51 259/781/51 146/782/51 237/783/51 184/784/51 279/785/51 87/786/51 210/787/51 156/788/51 249/789/51 136/790/51 227/791/51 174/792/51 269/793/51 127/471/51 262/470/51 306/794/51 282/795/51 308/796/51
f 396/577/81 292/558/81 404/557/81 498/594/81 499/593/81
f 288/797/85 379/797/85 498/798/85 406/340/85
f 294/340/50 400/340/50 499/340/50 384/340/50
f 309/799/81 400/800/81 294/801/81 296/802/81 243/803/81 327/804/81 260/805/81 122/806/81 213/807/81 159/808/81 252/809/81 139/810/81 230/811/81 177/812/81 272/813/81 76/814/81 206/815/81 152/816/81 245/817/81 132/818/81 223/819/81 170/820/81 265/821/81 123/822/81 214/823/81 160/824/81 253/825/81 140/826/81 231/827/81 178/828/81 273/829/81 79/830/81 207/831/81 153/832/81 246/833/81 133/834/81 224/835/81 171/836/81 266/837/81 334/838/81 204/839/81 297/840/81 148/841/81 310/842/81 200/843/81 311/844/81 167/845/81 295/846/81 192/847/81
f 500/848/161 501/849/161 502/850/161
f 503/851/162 504/852/162 505/853/162
f 506/854/163 507/855/163 508/856/163
f 509/857/164 510/858/164 511/859/164
f 512/860/165 513/850/165 514/861/165
f 515/862/166 516/863/166 517/851/166
f 518/864/167 519/865/167 520/866/167
f 521/867/168 522/868/168 523/858/168
f 524/869/169 525/870/169 526/871/169
f 527/872/170 528/873/170 529/874/170
f 530/875/171 531/876/171 532/877/171
f 533/878/172 534/879/172 535/880/172
f 536/881/173 537/882/173 538/883/173
f 539/884/174 540/885/174 541/886/174
f 542/887/175 543/888/175 544/889/175
f 545/890/176 546/891/176 547/879/176
f 500/848/177 503/892/177 505/893/177 501/849/177
f 504/852/178 506/854/178 508/856/178 505/851/178
f 509/857/179 502/894/179 501/850/179 510/858/179
f 507/855/180 511/859/180 510/858/180 508/895/180
f 514/861/181 515/896/181 517/897/181 512/860/181
f 515/851/182 518/898/182 520/866/182 516/863/182
f 523/858/183 514/850/183 513/899/183 521/867/183
f 518/864/184 523/858/184 522/868/184 519/865/184
f 502/894/62 513/899/62 512/860/62 500/848/62
f 516/863/60 504/852/60 503/892/60 517/897/60
f 506/854/67 520/866/67 519/865/67 507/855/67
f 521/867/68 509/857/68 511/859/68 522/868/68
f 524/869/185 527/900/185 529/901/185 525/870/185
f 528/873/186 530/875/186 532/877/186 529/886/186
f 533/878/187 526/902/187 525/903/187 534/879/187
f 531/876/188 535/880/188 534/879/188 532/887/188
f 538/883/189 539/904/189 541/905/189 536/881/189
f 539/886/190 542/906/190 544/889/190 540/885/190
f 547/879/191 538/903/191 537/907/191 545/890/191
f 542/887/192 547/879/192 546/891/192 543/888/192
f 526/871/68 537/882/68 536/881/68 524/869/68
f 540/885/67 528/873/67 527/900/67 541/905/67
f 530/875/60 544/889/60 543/888/60 531/876/60
f 545/890/62 533/878/62 535/880/62 546/891/62
f 503/908/81 500/909/81 512/910/81 517/911/81
l 406 315
l 400 311
l 413 320
l 305 413
l 263 413
l 496 320
l 497 305
